<svg width="43" height="40" viewBox="0 0 43 40" fill="none" xmlns="http://www.w3.org/2000/svg">
<path d="M32.75 22.5993L33.25 22.5999V22.5993H32.75ZM32.75 22.601L32.25 22.6005V22.601L32.75 22.601ZM32.75 23.3493H33.25H32.75ZM31.8841 26.954L32.3461 27.1454L32.3461 27.1454L31.8841 26.954ZM29.4183 30.6444L29.0648 30.2908V30.2908L29.4183 30.6444ZM25.728 33.1101L25.5367 32.6482L25.728 33.1101ZM17.022 33.1101L17.2133 32.6482L17.022 33.1101ZM13.3317 30.6444L13.6852 30.2908H13.6852L13.3317 30.6444ZM10.8659 26.954L11.3278 26.7627L10.8659 26.954ZM27.4067 9.55642L27.7422 9.92716L27.4067 9.55642ZM27.5905 9.55384L27.2552 9.92478L27.5905 9.55384ZM32.7056 23.6448L33.1833 23.7924L32.7056 23.6448ZM32.6989 23.6776L33.1967 23.7249L32.6989 23.6776ZM25.5849 11.323L25.9962 11.0387L25.5849 11.323ZM25.833 11.3278L25.4329 11.028L25.833 11.3278ZM20.4245 6.01967L20.1642 5.59276L20.4245 6.01967ZM20.577 6.02997L20.8732 5.62713L20.577 6.02997ZM20.1642 5.59276C19.67 5.8941 17.0172 7.57563 14.4829 10.4544C11.9491 13.3325 9.5 17.4469 9.5 22.601H10.5C10.5 17.778 12.791 13.8895 15.2335 11.1152C17.6753 8.34145 20.2349 6.72089 20.6848 6.44657L20.1642 5.59276ZM25.9962 11.0387C23.7952 7.85518 21.3533 5.98013 20.8732 5.62713L20.2808 6.43281C20.7114 6.74942 23.0588 8.54841 25.1737 11.6074L25.9962 11.0387ZM26.2332 11.6276C26.9415 10.682 27.5346 10.1149 27.7422 9.92716L27.0712 9.18568C26.8249 9.40856 26.1861 10.0224 25.4329 11.028L26.2332 11.6276ZM27.2552 9.92478C27.8972 10.505 32.25 14.7299 32.25 22.5993H33.25C33.25 14.3323 28.6737 9.85893 27.9257 9.18289L27.2552 9.92478ZM32.25 22.5987L32.25 22.6005L33.25 22.6016L33.25 22.5999L32.25 22.5987ZM32.25 22.601L32.25 23.3493L33.25 23.3493L33.25 22.601L32.25 22.601ZM32.25 23.3493C32.25 23.4016 32.2421 23.4511 32.2279 23.4973L33.1833 23.7924C33.2268 23.6517 33.25 23.5028 33.25 23.3493H32.25ZM32.2012 23.6303C32.099 24.7054 31.837 25.7614 31.4222 26.7627L32.3461 27.1454C32.799 26.052 33.0851 24.899 33.1967 23.7249L32.2012 23.6303ZM31.4222 26.7627C30.8757 28.0821 30.0746 29.281 29.0648 30.2908L29.7719 30.9979C30.8746 29.8952 31.7493 28.5861 32.3461 27.1454L31.4222 26.7627ZM29.0648 30.2908C28.055 31.3006 26.8561 32.1017 25.5367 32.6482L25.9194 33.5721C27.3601 32.9753 28.6692 32.1006 29.7719 30.9979L29.0648 30.2908ZM25.5367 32.6482C24.2173 33.1947 22.8031 33.476 21.375 33.476V34.476C22.9344 34.476 24.4786 34.1689 25.9194 33.5721L25.5367 32.6482ZM21.375 33.476C19.9469 33.476 18.5327 33.1947 17.2133 32.6482L16.8306 33.5721C18.2714 34.1689 19.8156 34.476 21.375 34.476V33.476ZM17.2133 32.6482C15.8939 32.1017 14.6951 31.3006 13.6852 30.2908L12.9781 30.9979C14.0808 32.1006 15.3899 32.9753 16.8306 33.5721L17.2133 32.6482ZM13.6852 30.2908C12.6754 29.281 11.8743 28.0821 11.3278 26.7627L10.4039 27.1454C11.0007 28.5861 11.8754 29.8952 12.9781 30.9979L13.6852 30.2908ZM11.3278 26.7627C10.7813 25.4433 10.5 24.0291 10.5 22.601H9.5C9.5 24.1605 9.80716 25.7046 10.4039 27.1454L11.3278 26.7627ZM27.7422 9.92716C27.6186 10.039 27.4048 10.06 27.2552 9.92478L27.9257 9.18289C27.6687 8.9506 27.3022 8.97666 27.0712 9.18568L27.7422 9.92716ZM32.2279 23.4973C32.2157 23.5368 32.2058 23.5814 32.2012 23.6303L33.1967 23.7249C33.1942 23.7515 33.189 23.7742 33.1833 23.7924L32.2279 23.4973ZM25.1737 11.6074C25.4267 11.9734 25.9659 11.9844 26.2332 11.6276L25.4329 11.028C25.5756 10.8375 25.8613 10.8435 25.9962 11.0387L25.1737 11.6074ZM20.6848 6.44657C20.6234 6.48401 20.5454 6.50538 20.4624 6.49883C20.3826 6.49253 20.321 6.46238 20.2808 6.43281L20.8732 5.62713C20.6862 5.48964 20.4111 5.44222 20.1642 5.59276L20.6848 6.44657Z" fill="#F4442E"/>
<path d="M27.6078 28.1862L27.108 28.197L27.108 28.1979L27.6078 28.1862ZM15.1406 28.3171L14.6406 28.3171L15.1406 28.3171ZM21.2944 19.2112L21.0086 18.8009L21.2944 19.2112ZM21.4554 19.2111L21.7413 18.8008L21.4554 19.2111ZM21.0086 18.8009C20.6292 19.0653 19.0549 20.2023 17.5703 21.8745C16.0973 23.5337 14.6405 25.8003 14.6405 28.317L15.6405 28.317C15.6405 26.1723 16.8964 24.1398 18.3181 22.5384C19.7284 20.95 21.231 19.8648 21.5803 19.6214L21.0086 18.8009ZM28.1077 28.1753C28.0539 25.6923 26.5983 23.461 25.1374 21.8272C23.6653 20.1808 22.117 19.0626 21.7413 18.8008L21.1696 19.6213C21.5151 19.8621 22.9931 20.9293 24.3919 22.4937C25.802 24.0707 27.062 26.0757 27.108 28.197L28.1077 28.1753ZM27.108 28.1979C27.1089 28.2373 27.1094 28.2769 27.1094 28.3166H28.1094C28.1094 28.2691 28.1088 28.2217 28.1077 28.1745L27.108 28.1979ZM27.1094 28.3166C27.1094 31.2291 24.5741 33.6464 21.375 33.6464V34.6464C25.0622 34.6464 28.1094 31.8435 28.1094 28.3166H27.1094ZM21.375 33.6464C18.176 33.6464 15.6409 31.2293 15.6406 28.317L14.6406 28.3171C14.641 31.8438 17.688 34.6464 21.375 34.6464V33.6464ZM14.6405 28.317C14.6405 28.5915 14.8628 28.817 15.1406 28.817V27.817C15.4183 27.817 15.6405 28.0425 15.6405 28.317L14.6405 28.317ZM15.6406 28.317C15.6406 28.0448 15.4206 27.817 15.1406 27.817V28.817C14.8606 28.817 14.6407 28.5893 14.6406 28.3171L15.6406 28.317ZM21.5803 19.6214C21.4589 19.706 21.2922 19.7067 21.1696 19.6213L21.7413 18.8008C21.5191 18.6461 21.2295 18.647 21.0086 18.8009L21.5803 19.6214Z" fill="#D33F49" fill-opacity="0.25"/>
</svg>
