<svg width="20" height="34" viewBox="0 0 20 34" fill="none" xmlns="http://www.w3.org/2000/svg">
<path d="M17.7526 16.4002C18.6436 15.9825 19.1647 15.3421 19.1647 14.3517C19.1647 12.498 15.7796 4.59428 12.3986 1.2689C11.8019 0.680193 10.895 0.00795546 9.99604 0C9.0931 0.00795546 8.19014 0.680193 7.59348 1.2689C4.20843 4.59428 0.827351 12.498 0.827351 14.3517C0.827351 15.3421 1.34448 15.9825 2.23946 16.4002C0.906925 19.7415 0 22.7049 0 23.9101C0 27.9674 4.47893 28.0152 10 28.0152C15.5211 28.0152 20 27.9674 20 23.9101C19.9881 22.7049 19.0812 19.7415 17.7526 16.4002Z" fill="#58E883"/>
<path d="M17.2275 19.5704C17.2275 19.9205 16.9451 20.2069 16.5911 20.2069H16.253C13.3453 20.2069 11.5513 21.969 11.5513 25.0398V32.86C11.5513 33.2101 11.2689 33.4965 10.9149 33.4965H9.11693C8.76689 33.4965 8.4805 33.2141 8.4805 32.86V18.1981C8.4805 17.8481 8.76291 17.5617 9.11693 17.5617H10.7677C11.0979 17.5617 11.3723 17.8163 11.4001 18.1464C11.4439 18.6794 12.0963 18.934 12.4742 18.5521C13.3055 17.7128 14.5147 17.2037 15.9905 17.2037C16.3763 17.2037 16.3206 17.2355 16.6985 17.2992C17.0008 17.3509 17.2236 17.6174 17.2236 17.9237V19.5704H17.2275Z" fill="black"/>
<path opacity="0.8" d="M5.20684 21.1218C7.2315 21.1218 8.751 22.0764 9.48688 23.5402C9.53064 23.6277 9.55054 23.7272 9.55054 23.8266V25.0279C9.55054 25.5927 8.85042 25.8911 8.46458 25.4734C7.64914 24.5943 6.44788 24.125 4.94429 24.125H4.20842C3.85838 24.125 3.572 23.8425 3.572 23.4885V21.8417C3.572 21.5355 3.79473 21.265 4.09703 21.2172C4.4789 21.1536 4.81702 21.1218 5.20684 21.1218Z" fill="black"/>
</svg>
